# xmcd CD database file
#
# Track frame offsets:
#	150
#	21612
#	37150
#	55150
#	75025
#	92275
#	105275
#	122100
#	137070
#	155375
#	170550
#	189925
#	205350
#	227325
#	246612
#	261425
#	278575
#	295925
#	315087
#	328787
#
# Disc length: 4568 seconds
#
# Revision: 3
# Processed by: cddbd v1.5.1PL0 Copyright (c) Steve Scherf et al.
# Submitted via: CDex 1.51
#
DISCID=0e11d614
DTITLE=Various Artist - Bravo Hits 2002 - Part 1 [CD1)
DYEAR=2002
DGENRE=Pop
TTITLE0=Various Artist - Ozzy Osbourne    Dreamer
TTITLE1=Various Artist - No Angels    Something About Us
TTITLE2=Various Artist - Tiziano Ferro    Perdono
TTITLE3=Various Artist - Alizée    Moi....Lolita
TTITLE4=Various Artist - Nelly   Hot In Herre
TTITLE5=Various Artist - Jennifer Lopez   I'm Gonna Be Alright
TTITLE6=Various Artist - Christina Milian   When You Look At Me
TTITLE7=Various Artist - Chad Kroeger     Hero
TTITLE8=Various Artist - Kate Winslet   What If
TTITLE9=Various Artist - Anastacvia    Paid My Dues
TTITLE10=Various Artist - Destiny's Child   Nasty Girl
TTITLE11=Various Artist - Moby     In This World
TTITLE12=Various Artist - Sheryl Crow    Soak Up The Sun
TTITLE13=Various Artist - Lenny Kravitz    Stillness Of Heart
TTITLE14=Various Artist - Atomic Kitten   It's OK
TTITLE15=Various Artist - Ashanti    Foolisch
TTITLE16=Various Artist - Britney Spears   I'm Not A Girl, Not
TTITLE17=Various Artist - Nsync   Girlfriend
TTITLE18=Various Artist - B3   I.O.I.O.
TTITLE19=Various Artist - Bro'Sis    Hot Temptation
EXTD=YEAR: 2002
EXTT0=
EXTT1=
EXTT2=
EXTT3=
EXTT4=
EXTT5=
EXTT6=
EXTT7=
EXTT8=
EXTT9=
EXTT10=
EXTT11=
EXTT12=
EXTT13=
EXTT14=
EXTT15=
EXTT16=
EXTT17=
EXTT18=
EXTT19=
PLAYORDER=
